Coordinates
version=1
nRows=7
nColumns=40
inDegrees=yes

Units are S.I. units (second, meters, Newtons, ...)
If the header above contains a line with 'inDegrees', this indicates whether rotational values are in degrees (yes) or radians (no).

endheader
time	pelvis_tilt	pelvis_list	pelvis_rotation	pelvis_tx	pelvis_ty	pelvis_tz	hip_flexion_r	hip_adduction_r	hip_rotation_r	knee_angle_r	knee_angle_r_beta	ankle_angle_r	subtalar_angle_r	mtp_angle_r	hip_flexion_l	hip_adduction_l	hip_rotation_l	knee_angle_l	knee_angle_l_beta	ankle_angle_l	subtalar_angle_l	mtp_angle_l	lumbar_extension	lumbar_bending	lumbar_rotation	arm_flex_r	arm_add_r	arm_rot_r	elbow_flex_r	pro_sup_r	wrist_flex_r	wrist_dev_r	arm_flex_l	arm_add_l	arm_rot_l	elbow_flex_l	pro_sup_l	wrist_flex_l	wrist_dev_l
     16.72500000	     -1.15782370	     -2.29561146	   -178.96734533	      0.21992772	      0.89053241	     -0.94731084	     11.13900049	    -32.58005056	    -34.31770648	     11.58680332	      0.20222787	    -21.04528954	      0.00000000	      0.00000000	     12.54315489	    -26.81493344	    -24.43467383	     14.65431646	      0.25576607	    -13.48589979	      0.00000000	      0.00000000	    -25.17403880	      0.01543695	     -4.34359341	     21.56200935	    -14.19965880	     36.86393789	      7.12032202	     69.13772450	      0.00000000	      0.00000000	     28.42085844	    -18.45002272	     59.65788751	     21.81794074	     80.63873323	      0.00000000	      0.00000000
     16.73000000	     -1.35992974	     -2.32456285	   -178.92098479	      0.21921843	      0.89064192	     -0.94704958	     10.84093231	    -32.63811782	    -34.43337509	     11.61405357	      0.20270347	    -21.00719080	      0.00000000	      0.00000000	     12.35090405	    -26.78791006	    -24.27077258	     14.74972808	      0.25743132	    -13.46173972	      0.00000000	      0.00000000	    -24.81209247	      0.00510605	     -4.47506275	     21.33362839	    -14.20748767	     36.76086700	      7.18308128	     69.15709696	      0.00000000	      0.00000000	     28.16509320	    -18.45097397	     59.64031684	     21.80229684	     80.63977247	      0.00000000	      0.00000000
     16.73500000	     -1.99352841	     -2.48587202	   -179.11983128	      0.21796638	      0.89160847	     -0.94729579	     10.19081509	    -32.80739961	    -34.50862199	     11.68573426	      0.20395454	    -20.83165143	      0.00000000	      0.00000000	     11.35955992	    -26.64556206	    -24.85294703	     14.62692312	      0.25528797	    -13.35104695	      0.00000000	      0.00000000	    -24.97780311	     -0.28077417	     -4.19083175	     20.83948466	    -14.31679342	     35.68780142	      7.62836791	     69.40107468	      0.00000000	      0.00000000	     27.83898689	    -18.29307906	     58.59031260	     21.89831802	     80.50599596	      0.00000000	      0.00000000
     16.74000000	     -2.17072112	     -2.49411820	   -179.05325701	      0.21704929	      0.89167063	     -0.94705231	      9.87327301	    -32.84963708	    -34.69646870	     11.69529182	      0.20412135	    -20.82810141	      0.00000000	      0.00000000	     11.17150634	    -26.63343831	    -24.70774383	     14.68627688	      0.25632389	    -13.29634874	      0.00000000	      0.00000000	    -24.56565459	     -0.25200781	     -4.35916778	     20.58400688	    -14.28522344	     35.60326221	      7.56292476	     69.44670004	      0.00000000	      0.00000000	     27.49053153	    -18.28896360	     58.62791873	     21.80941027	     80.57753335	      0.00000000	      0.00000000
     16.74500000	     -2.52058147	     -2.52750293	   -179.07272365	      0.21615769	      0.89200291	     -0.94688082	      9.41296562	    -32.90340824	    -34.82023949	     11.71430731	      0.20445323	    -20.61500300	      0.00000000	      0.00000000	     10.75201194	    -26.62486916	    -24.89994086	     14.81245951	      0.25852619	    -12.91693379	      0.00000000	      0.00000000	    -24.36342870	     -0.27512113	     -4.36242832	     20.29627831	    -14.32293808	     35.30514344	      7.70036145	     69.51022619	      0.00000000	      0.00000000	     27.18002310	    -18.25184203	     58.43482549	     21.79923885	     80.55998002	      0.00000000	      0.00000000
     16.75000000	     -2.72158994	     -2.53375549	   -179.01019885	      0.21543513	      0.89206468	     -0.94662893	      9.09743445	    -32.94246012	    -34.93840082	     11.74721597	      0.20502760	    -20.58464339	      0.00000000	      0.00000000	     10.56320826	    -26.61873411	    -24.74905629	     14.89229592	      0.25991960	    -12.88305405	      0.00000000	      0.00000000	    -24.01424535	     -0.24083369	     -4.50455916	     20.02501571	    -14.35665870	     35.16632069	      7.76143677	     69.53303009	      0.00000000	      0.00000000	     26.86685704	    -18.26280144	     58.41065281	     21.76055226	     80.56311903	      0.00000000	      0.00000000
     16.75500000	     -2.91120609	     -2.54153597	   -178.97449058	      0.21457066	      0.89212112	     -0.94644797	      8.78801471	    -32.98062088	    -35.10724580	     11.76343519	      0.20531068	    -20.52878063	      0.00000000	      0.00000000	     10.35434813	    -26.61908713	    -24.65189392	     14.96821187	      0.26124458	    -12.79206210	      0.00000000	      0.00000000	    -23.64179172	     -0.24046210	     -4.60477953	     19.73996577	    -14.35432593	     35.03255016	      7.82082159	     69.55339649	      0.00000000	      0.00000000	     26.52435202	    -18.27956741	     58.39226209	     21.72875921	     80.56806941	      0.00000000	      0.00000000
